<svg width="92" height="114" viewBox="0 0 92 114" fill="none" xmlns="http://www.w3.org/2000/svg">
<path d="M76 67C61.1667 67 31.1 67 27.5 67C23 67 16 68 15 75.5" stroke="#D9D9D9" stroke-width="10"/>
<path d="M29 82C29 80.8954 29.8954 80 31 80H49C50.1046 80 51 80.8954 51 82V101.89C51 102.733 50.0197 103.198 49.3668 102.664L41.2665 96.0362C40.5298 95.4334 39.4703 95.4334 38.7335 96.0362L30.6332 102.664C29.9803 103.198 29 102.733 29 101.89V82Z" fill="#D9D9D9"/>
<path d="M62 87L75 87C75.5523 87 76 86.5523 76 86L76 17C76 16.4477 75.5523 16 75 16L28 16C18.5 16 15 23 15 28C15 43.8334 15 59.6667 15 75.5C15 78.6619 16.3997 82.6236 19.8312 85.1091" stroke="#D9D9D9" stroke-width="10" stroke-linecap="round"/>
</svg>
